<svg width="34" height="13" viewBox="0 0 34 13" fill="none" xmlns="http://www.w3.org/2000/svg">
<rect x="10" y="1" width="18" height="11" fill="#009689"/>
<path d="M1.36022 0.843454C1.57214 0.836941 1.84994 0.843905 2.06106 0.853464C2.12723 0.856429 2.09372 0.869681 2.1394 0.872324C2.22873 0.877476 2.31195 0.870977 2.40023 0.877115C2.42948 0.879214 2.39307 0.900205 2.42374 0.901926C2.59185 0.911203 2.75088 0.905856 2.92117 0.910318C3.75997 0.932333 4.58449 0.940213 5.43355 0.949777C5.71351 0.952913 6.05383 0.971963 6.343 0.963632C6.37675 0.962641 6.35663 0.944216 6.36305 0.942697C6.46378 0.919449 6.43029 0.956646 6.49606 0.961587C6.75711 0.9811 7.04739 0.982797 7.29861 0.975687C7.40549 0.972607 7.29833 0.936011 7.40594 0.956552C7.41342 0.95794 7.3863 0.977506 7.41561 0.979593C7.48208 0.984286 7.60819 0.980789 7.6597 0.982339C7.75899 0.985426 7.77541 0.985229 7.86932 0.985452C7.9977 0.985927 8.15039 0.995653 8.28812 0.99122C8.31752 0.990216 8.2786 0.970158 8.32549 0.966745C8.37242 0.963337 8.49657 0.965038 8.53842 0.969766C8.58029 0.974497 8.56246 0.990261 8.56987 0.993875C8.63083 1.02437 8.77444 0.982133 8.79291 0.981088C8.86383 0.977341 8.93263 0.975449 9 0.974797L9.11456 0.973282L9.11612 1.09091C9.11856 1.34357 9.10357 1.5762 9.10363 1.82587C9.10373 2.06595 9.11168 2.32266 9.11059 2.55109C9.10921 2.82325 9.09834 3.0539 9.10021 3.3183C9.10038 3.3462 9.12397 3.3135 9.12423 3.34758C9.12697 3.70965 9.1244 4.0692 9.10848 4.42971C9.10686 4.46587 9.08616 4.41927 9.0833 4.45539C9.06629 4.67655 9.02541 5.02647 9.11556 5.15782C9.11204 5.30762 9.1084 5.48949 9.09023 5.62351C9.07854 5.70992 9.05598 5.62599 9.0656 5.73214C9.06775 5.75608 9.0875 5.72495 9.08922 5.76085C9.09646 5.91201 9.09003 6.07715 9.10024 6.22668C9.10236 6.2571 9.12006 6.24879 9.12325 6.25741C9.14906 6.32984 9.10639 6.45041 9.10329 6.47669C9.08017 6.67684 9.08927 6.82301 9.08871 7.00946C9.08856 7.05274 9.11234 7.00159 9.11306 7.04322C9.11647 7.25916 9.11442 7.48285 9.10387 7.69429C9.10147 7.74132 9.08122 7.69807 9.07903 7.72055C9.06964 7.81965 9.1079 7.84162 9.09963 7.93666C9.09794 7.9567 9.0806 7.94541 9.0787 7.94906C9.04881 8.00626 9.09116 8.05597 9.09209 8.07068C9.10487 8.25679 9.06066 8.37576 9.06692 8.55555C9.06771 8.57706 9.08965 8.52856 9.09054 8.58902C9.09659 8.99184 9.09057 9.41786 9.07302 9.81658C9.07032 9.87857 9.05384 9.83432 9.05181 9.83822C9.02007 9.9018 9.0626 9.94294 9.0642 9.96315C9.07573 10.1226 9.04006 10.2716 9.09072 10.3799C9.07661 10.9218 9.09214 11.4618 9.07538 12L9.07637 12.0744L9 12.0754C8.86745 12.0713 8.73501 12.0652 8.60266 12.0562C8.59415 12.0557 8.60941 12.0347 8.59242 12.0338C8.38785 12.022 8.42713 12.0546 8.29177 12.0944C8.25767 12.1044 8.15394 12.0563 8.14477 12.0528C8.11133 12.0398 8.14601 12.0086 8.13481 12.0061C8.04216 11.9864 8.05726 12.0894 7.93226 12.0895C7.92835 12.0893 7.94477 12.0703 7.93428 12.0684C7.90169 12.0625 7.86937 12.0701 7.83748 12.0635C7.76449 12.0484 7.73849 11.9983 7.627 12.0275C7.61289 12.0313 7.63444 12.0897 7.52284 12.087C7.47835 12.0858 7.28142 12.0868 7.22623 12.083C7.1711 12.0792 7.20895 12.0604 7.20502 12.0596C7.05649 12.0347 7.11281 12.0244 7.0384 11.9875C6.96399 11.9507 6.98462 12.0384 6.95429 12.0482C6.9239 12.0579 6.815 12.0374 6.78824 12.0302C6.76149 12.0231 6.79485 12.0111 6.77107 12.007C6.61337 11.9806 6.70185 12.0505 6.64989 12.0644C6.52738 12.0974 6.43197 12.0324 6.31981 12.026C6.28947 12.0243 6.31423 12.0391 6.28721 12.0405C6.18018 12.0458 6.11582 12.0255 5.99406 12.0441C5.97414 12.0471 5.87571 12.0862 5.812 12.0575C5.80297 12.0534 5.82861 12.0372 5.783 12.0336C5.71487 12.0281 5.5921 12.0246 5.51885 12.03C5.46478 12.034 5.52676 12.0607 5.45869 12.0524C5.42844 12.0487 5.48451 12.0331 5.42768 12.0274C5.37114 12.0218 5.22661 12.0225 5.1716 12.023C5.11671 12.0236 5.14675 12.0438 5.14232 12.0452C5.11547 12.053 5.01011 12.0627 5.00079 12.0627C4.53115 12.0652 4.09807 12.0311 3.64081 12.0424C3.60492 12.0432 3.62882 12.0646 3.62335 12.0649C3.5005 12.0738 3.59736 12.0171 3.51155 11.9981C3.52395 12.0414 3.47329 12.0336 3.38676 12.0383C3.34506 12.0406 3.36777 12.0574 3.36396 12.0591C3.30212 12.0846 3.25906 12.0517 3.24797 12.045C3.20702 12.0202 3.16245 12.0495 3.13458 12.0329C3.10673 12.0165 3.17083 11.9921 3.08784 11.9925C3.06456 12.008 3.12618 12.0485 3.06317 12.055C2.82543 12.0799 2.38166 12.0481 2.19051 12.0448C1.99974 12.0415 1.93812 12.0444 1.82696 12.0388C1.62617 12.0286 1.69975 12.0587 1.57507 12.0724C1.45003 12.0862 1.51082 12.0122 1.49284 11.9963C1.4752 11.9804 1.45593 11.9968 1.43398 11.9881C1.41211 11.9793 1.45947 11.9685 1.40801 11.9652C1.35653 11.962 1.21578 11.9902 1.19753 12.0069C1.15895 12.0421 1.22238 12.0791 1.08616 12.0661C1.07833 12.0653 1.10375 12.0458 1.07375 12.0439C1.04926 12.0423 1.02467 12.0409 1 12.0397L0.960857 12.0402L0.960325 12C0.971419 11.7847 0.973387 11.5635 0.985269 11.35C0.98712 11.3173 1.00876 11.3465 1.01008 11.3275C1.02392 11.1291 0.987436 11.2 0.946908 11.0913C1.00084 11.1157 1.03384 11.0556 1.03416 10.9051C1.03437 10.8146 1.01081 10.8301 0.99421 10.7716C0.989206 10.7541 1.00538 10.69 0.994302 10.6784C0.95809 10.6402 0.917553 10.7005 0.933694 10.5453C0.934461 10.5385 0.954283 10.5601 0.955484 10.5366C0.963341 10.3845 0.925464 10.3663 0.920877 10.2019C0.917278 10.073 0.940375 9.84386 0.944131 9.69713C1.00477 9.70021 0.990883 9.56162 0.949075 9.5054C0.950787 9.41017 0.948423 9.30732 0.954202 9.21528C0.956172 9.18361 0.973728 9.20442 0.975625 9.20042C1.00538 9.13917 0.964708 9.09777 0.963113 9.07722C0.947612 8.85445 0.97844 8.67295 0.948312 8.46034C0.947227 8.4528 0.905106 8.44057 0.935861 8.38374C0.937981 8.38006 0.957145 8.45028 0.958627 8.35027C0.960112 8.25024 0.982692 8.06168 0.963174 7.92281C0.958475 7.88921 0.924282 7.80421 0.950998 7.73599C0.954625 7.7269 0.966706 7.73684 0.973428 7.72373C0.994848 7.68131 0.952274 7.65816 0.988443 7.60831C1.02461 7.55846 1.0517 7.45478 1.02674 7.31473C1.02602 7.31027 0.992273 7.27712 0.992807 7.23308C0.993687 7.16277 1.00072 7.06297 1.0005 6.98956C1.00038 6.95441 0.979426 6.97691 0.979043 6.97081C0.967302 6.73448 0.985981 6.56628 0.994088 6.3131C0.995616 6.26669 0.967043 6.13332 0.989633 6.04347C1.01436 5.94481 1.11723 6.04619 1.09272 5.81942C1.08292 5.72796 0.952413 5.61217 1.02003 5.4478C1.00327 5.12902 1.03788 4.83421 1.01396 4.51455C1.0129 4.50017 0.976472 4.45471 0.976968 4.42092C0.977774 4.37074 0.994798 4.34321 0.995919 4.30738C1.00105 4.15727 0.986482 4.0199 0.988748 3.87516C0.989571 3.82021 1.00717 3.83943 1.00816 3.77389C1.00912 3.70839 0.985946 3.66472 0.99714 3.57596C1.00567 3.50892 1.05305 3.4419 1.05857 3.35292C1.01184 3.34953 1.0128 3.28842 1.00047 3.1798C0.998073 3.15893 0.981808 3.18131 0.979837 3.17144C0.971454 3.13124 0.984934 3.09405 0.975808 3.05588C0.973617 3.0466 0.957657 3.04616 0.954965 3.03857C0.931462 2.97403 0.967361 2.8677 0.973611 2.84944C0.997349 2.77945 0.976592 2.74674 0.98594 2.69305C0.995287 2.63946 1.00697 2.7196 1.01264 2.65699C1.02437 2.52721 1.0218 2.36047 1.02253 2.22866C1.02272 2.17608 1.00142 2.21195 1.00095 2.20443C0.995552 2.09568 1.01821 1.98572 0.975778 1.92542C1.0855 1.85002 0.965136 1.85984 0.9871 1.7044C0.988876 1.69216 1.04076 1.67659 1.04838 1.72359C1.05599 1.7706 1.03977 1.84188 1.05164 1.9071C1.05443 1.92254 1.10305 2.01101 1.106 2.02309C1.12901 2.11764 1.05148 2.13104 1.04722 2.13605C1.00126 2.19278 1.05364 2.30089 1.05726 2.32936C1.07384 2.45961 1.06294 2.57027 1.07478 2.6792C1.08243 2.75045 1.13322 2.75742 1.13166 2.81337C1.12652 2.99935 1.05567 3.06427 1.1171 3.23953C1.13021 3.27711 1.18572 3.23976 1.14207 3.37442C1.13932 3.38288 1.09938 3.48285 1.12464 3.54061C1.12783 3.54787 1.144 3.54764 1.14536 3.5572C1.15415 3.62132 1.14127 3.66408 1.14744 3.73393C1.15361 3.80377 1.16281 3.88775 1.15733 3.96749C1.15405 4.01555 1.1239 4.07721 1.11652 4.10022C1.09527 4.16517 1.13012 4.23482 1.10438 4.27507C1.07851 4.31565 1.03922 4.23631 1.0225 4.34273C1.06453 4.34667 1.10767 4.35572 1.14994 4.36206C1.14846 4.59527 1.13487 4.82473 1.13673 5.05871C1.137 5.08772 1.1596 5.05806 1.16047 5.08915C1.16406 5.22036 1.14795 5.33496 1.15437 5.47102C1.15942 5.57635 1.18334 5.69184 1.18937 5.80197C1.14127 5.86924 1.1576 6.03266 1.15321 6.15138C1.15169 6.19297 1.13884 6.19019 1.13465 6.21976C1.11915 6.33133 1.16165 6.27905 1.16834 6.30964C1.19689 6.44087 1.10069 6.45211 1.10307 6.60682C1.10316 6.61502 1.15444 6.71522 1.15763 6.72902C1.17845 6.8167 1.13978 6.74353 1.13599 6.79841C1.12907 6.8986 1.11682 6.96823 1.13184 7.08578C1.13629 7.12006 1.16825 7.20229 1.14353 7.26886C1.1403 7.27761 1.12335 7.27277 1.12235 7.27982C1.10581 7.40741 1.15906 7.41076 1.1771 7.48367C1.19513 7.55659 1.15837 7.66921 1.14777 7.69213C1.12036 7.7521 1.13606 7.64619 1.13337 7.64294C1.10136 7.60479 1.10687 7.68693 1.10416 7.74969C1.05195 7.75878 1.05508 7.84655 1.10157 7.81476C1.10665 7.81114 1.10178 7.76229 1.10416 7.74969C1.1554 7.80479 1.16196 7.90124 1.11408 8.00778C1.09164 8.05765 1.06548 8.01051 1.07505 8.162C1.07937 8.23076 1.11533 8.20419 1.12513 8.26486C1.1475 8.40348 1.11396 8.5836 1.11924 8.72651C1.12116 8.77838 1.14084 8.72785 1.14283 8.7633C1.14817 8.85737 1.1334 8.94033 1.14097 9.03481C1.14168 9.04337 1.16228 9.02245 1.16254 9.05183C1.16494 9.27455 1.15174 9.46849 1.15138 9.70102C1.15121 9.81338 1.16257 10.0143 1.16029 10.1306C1.15645 10.3324 1.12649 10.5805 1.13377 10.7529C1.13843 10.8653 1.15903 10.8406 1.17307 10.8888C1.20029 10.9817 1.15154 11.1462 1.14399 11.1683C1.14374 11.169 1.13888 11.0723 1.1283 11.1239C1.10626 11.1539 1.14389 11.1673 1.14399 11.1683C1.13911 11.1829 1.13444 11.3761 1.13837 11.4145C1.14053 11.4353 1.16005 11.4236 1.16081 11.4345C1.17351 11.6224 1.1796 11.8106 1.17847 12L1 11.8215C1.07103 11.822 1.14224 11.8234 1.21369 11.8259C1.2183 11.8263 1.21135 11.8481 1.2222 11.8488C1.3739 11.8585 1.47103 11.8318 1.59614 11.8159C1.72123 11.8001 1.82043 11.8054 1.89448 11.8429C1.98886 11.8381 2.12427 11.8547 2.20219 11.8648C2.28011 11.8748 2.29099 11.8323 2.29784 11.8315C2.51169 11.8046 2.6353 11.8289 2.85716 11.8327C2.96263 11.8346 3.17186 11.8284 3.28606 11.8238C3.37631 11.82 3.43069 11.83 3.51385 11.8236C3.5251 11.8228 3.51374 11.8038 3.51717 11.8031C3.60999 11.7804 3.56538 11.8267 3.58454 11.835C3.65402 11.865 3.69694 11.881 3.8158 11.8669C3.84321 11.8637 3.92308 11.797 3.97305 11.7931C4.03803 11.7882 4.0135 11.8121 4.08154 11.8063C4.08736 11.8058 4.08615 11.7911 4.12813 11.7917C4.32304 11.7946 4.53554 11.8031 4.73809 11.8017C4.76576 11.8015 4.73028 11.7781 4.77026 11.7776C4.95783 11.7748 5.16343 11.7756 5.34617 11.7866C5.39114 11.7894 5.36295 11.8057 5.37271 11.8106C5.43266 11.84 5.51767 11.7973 5.53169 11.7964C5.86627 11.7759 6.12234 11.8146 6.46336 11.7962C6.48192 11.7951 6.62481 11.7493 6.68855 11.7886C6.69292 11.7912 6.75599 11.8314 6.81176 11.8039C6.81522 11.8022 6.77592 11.7815 6.8445 11.7836C6.91309 11.7857 7.02347 11.7719 7.11774 11.7946C7.14759 11.8018 7.21813 11.8418 7.30716 11.8099C7.31296 11.8077 7.45041 11.7354 7.49947 11.7853C7.50742 11.7935 7.4991 11.8462 7.60536 11.8192C7.62566 11.8139 7.58881 11.8022 7.64229 11.7948C7.72424 11.7835 7.83282 11.7976 7.93356 11.7741C7.95113 11.77 8.02592 11.7342 8.08591 11.7613C8.0953 11.7656 8.07745 11.7832 8.10913 11.7852C8.25978 11.7946 8.41753 11.7829 8.57049 11.795C8.62467 11.7993 8.59697 11.8278 8.65345 11.8354C8.70993 11.843 8.82373 11.8504 8.88283 11.8374C8.94194 11.8244 8.87737 11.779 8.96592 11.7754C8.97729 11.7749 8.98864 11.7745 9 11.7741L8.77407 12C8.76114 11.6266 8.78631 11.2564 8.79009 10.8833C8.79067 10.8263 8.77444 10.8735 8.77413 10.7895C8.77292 10.4797 8.7577 9.94487 8.7922 9.67606C8.81983 9.46068 8.84086 9.73173 8.8521 9.56714C8.85747 9.48772 8.80472 9.4018 8.80306 9.38263C8.78619 9.19534 8.80956 9.06517 8.80239 8.8966C8.8009 8.86179 8.77953 8.89593 8.7785 8.8663C8.77479 8.76511 8.78433 8.65875 8.78258 8.56205C8.78175 8.51867 8.76542 8.52666 8.76669 8.48674C8.76951 8.39122 8.77638 8.30676 8.79168 8.21365C8.79307 8.20516 8.81338 8.26239 8.81414 8.19172C8.8153 8.07734 8.8304 7.93538 8.81481 7.80379C8.81012 7.76474 8.77281 7.76321 8.79858 7.67929C8.80396 7.66168 8.84877 7.68414 8.81005 7.58638C8.80362 7.56994 8.75139 7.40571 8.78506 7.32512C8.79392 7.30385 8.83058 7.24959 8.82482 7.20264C8.8239 7.19627 8.80386 7.22178 8.8019 7.18287C8.79536 7.04575 8.7975 6.90205 8.79122 6.76118C8.78951 6.72357 8.76876 6.77959 8.76687 6.72353C8.76163 6.56936 8.76691 6.37687 8.7734 6.2261C8.77583 6.17052 8.79301 6.20894 8.79488 6.2049C8.8253 6.13986 8.78425 6.10141 8.78185 6.07982C8.76752 5.94557 8.7868 5.84334 8.7817 5.71959C8.78034 5.68544 8.76077 5.70966 8.75903 5.70285C8.74197 5.63235 8.77712 5.68487 8.781 5.64024C8.79197 5.51522 8.7904 5.37586 8.78789 5.24943C8.78695 5.20299 8.76425 5.25518 8.76366 5.21351C8.75975 4.96684 8.76192 4.71041 8.77444 4.46968C8.77683 4.42435 8.79431 4.45287 8.7983 4.44342C8.82623 4.37831 8.78814 4.28288 8.78451 4.26092C8.76794 4.16109 8.78339 4.12231 8.78051 4.03414C8.76615 3.60343 8.77638 3.07163 8.78271 2.66506C8.79085 2.13527 8.80747 1.72416 8.80315 1.21895C8.8029 1.18684 8.77965 1.21922 8.77914 1.19154C8.77861 1.15795 8.77821 1.12441 8.77792 1.09091L9 1.31299C8.67707 1.31581 8.35778 1.30893 8.03335 1.31501C8.00397 1.31552 8.04632 1.33756 7.99916 1.33912C7.90242 1.34247 7.77988 1.34127 7.68207 1.33424C7.63436 1.33085 7.69835 1.31193 7.65033 1.30891C7.53851 1.30182 7.41866 1.30025 7.3038 1.30378C7.25493 1.30533 7.32867 1.32787 7.26514 1.32813C6.83239 1.33037 6.40738 1.33425 5.97007 1.30506C5.94009 1.30306 5.91379 1.25724 5.85004 1.26603C5.84524 1.27874 5.8455 1.2937 5.84341 1.30729C5.21343 1.31461 4.58989 1.29873 3.95815 1.29627C3.93151 1.29617 3.97755 1.32045 3.92598 1.32038C3.62752 1.32002 3.33769 1.32675 3.0324 1.30262C3.00211 1.30026 3.01765 1.25756 2.92838 1.26402C2.91264 1.26519 2.7782 1.27089 2.74344 1.28016C2.73871 1.28156 2.76324 1.30149 2.71992 1.30207C2.46816 1.3051 2.20433 1.30055 1.95301 1.28837C1.91244 1.28637 1.95564 1.26514 1.92675 1.26353C1.72182 1.25226 1.49891 1.2684 1.30309 1.24912C1.17202 1.23615 1.22054 1.19946 1.15089 1.16334C1.14104 1.15824 1.05987 1.15744 1.05568 1.13642C1.0449 1.08358 1.08421 1.02572 1.06808 0.9694C1.06468 0.957269 0.955973 0.970335 1.02033 0.941019C1.02483 0.939057 1.10364 0.929327 1.12305 0.919382C1.13656 0.912506 1.11221 0.891135 1.13978 0.882334C1.16735 0.87354 1.19765 0.891454 1.24337 0.881113C1.28906 0.870644 1.26897 0.846332 1.36022 0.843454ZM2.55305 11.9097C2.6252 11.9301 2.63584 11.8554 2.55781 11.8733C2.55403 11.8742 2.54932 11.9087 2.55305 11.9097ZM1.07847 4.82342C1.04549 4.91774 1.09398 4.98229 1.11945 4.91575C1.1449 4.84921 1.08847 4.79468 1.07847 4.82342ZM1.05439 3.8453C1.02839 3.95554 1.13442 3.9729 1.11298 3.85482C1.11177 3.84796 1.0559 3.83886 1.05439 3.8453ZM1.4739 1.15305C1.47291 1.15206 1.41456 1.15109 1.41317 1.15208C1.3821 1.17583 1.49876 1.17774 1.4739 1.15305ZM1.02818 2.87468C1.01383 2.9091 1.03039 3.00819 1.04823 2.96543C1.06257 2.931 1.04602 2.83182 1.02818 2.87468ZM6.31678 11.9895C6.31792 11.9906 6.35975 11.9916 6.35891 11.9853C6.35607 11.9651 6.29785 11.9708 6.31678 11.9895ZM1.02696 1.22501C1.02296 1.46874 0.935377 1.61652 0.94526 1.3511C0.947049 1.30304 0.973191 1.45469 0.981088 1.39351C0.995474 1.28157 0.94048 1.20724 0.969949 1.09301C0.975343 1.07233 1.02738 1.21111 1.02708 1.22544C1.02704 1.2253 1.027 1.22515 1.02696 1.22501ZM2.5946 11.9995C2.59604 12.0005 2.65394 12.0015 2.65533 12.0005C2.68669 11.9767 2.57004 11.9748 2.5946 11.9995ZM8.75761 12.0358C8.7608 12.0379 8.89518 12.0398 8.89956 12.0379C8.96966 11.9991 8.69799 11.995 8.75761 12.0358ZM0.945749 9.69482C0.921868 9.63164 0.919056 9.55606 0.949045 9.50569C0.947453 9.56848 0.947218 9.63169 0.945749 9.69482Z" fill="#06DAC7" fill-opacity="0.43"/>
<path d="M4.31 10H3.26C3.03333 10 2.88333 9.96333 2.81 9.89C2.74333 9.81667 2.71 9.66333 2.71 9.43V3.34C2.71 3.10667 2.74333 2.95333 2.81 2.88C2.88333 2.80667 3.03333 2.77 3.26 2.77H4.31V10ZM7.4 8.6V9.45C7.4 9.67667 7.36333 9.82667 7.29 9.9C7.21667 9.96667 7.06333 10 6.83 10H4.71V8.6H7.4ZM6.8 5.65V6.25C6.8 6.49 6.77667 6.64333 6.73 6.71C6.68333 6.77 6.55 6.8 6.33 6.8H4.71V5.65H6.8ZM7.3 2.77V3.62C7.3 3.84667 7.26333 3.99667 7.19 4.07C7.11667 4.13667 6.96333 4.17 6.73 4.17H4.71V2.77H7.3Z" fill="#06DCCA"/>
<path d="M17.0005 2.77H18.5005C18.9872 2.77 19.3539 2.85333 19.6005 3.02C19.8539 3.18667 19.9805 3.47667 19.9805 3.89V9.43C19.9805 9.66333 19.9439 9.81667 19.8705 9.89C19.8039 9.96333 19.6572 10 19.4305 10H18.3805V4.01C18.3805 3.90333 18.3639 3.83 18.3305 3.79C18.3039 3.74333 18.2305 3.72 18.1105 3.72H17.0005V2.77ZM13.3705 10H12.3205C12.0939 10 11.9439 9.96333 11.8705 9.89C11.8039 9.81667 11.7705 9.66333 11.7705 9.43V3.17C11.7705 3.05 11.8039 2.95333 11.8705 2.88C11.9372 2.80667 12.0239 2.77 12.1305 2.77H13.3705V10ZM13.7805 2.77H16.3405C16.4472 2.77 16.5339 2.80667 16.6005 2.88C16.6672 2.95333 16.7005 3.05 16.7005 3.17V9.27H15.6605C15.4605 9.27 15.3172 9.21667 15.2305 9.11C15.1439 8.99667 15.1005 8.81667 15.1005 8.57V4.01C15.1005 3.90333 15.0839 3.83 15.0505 3.79C15.0239 3.74333 14.9505 3.72 14.8305 3.72H13.7805V2.77ZM23.0397 2.78V5.65C23.0397 5.75667 23.063 5.83333 23.1097 5.88C23.163 5.92667 23.2764 5.95 23.4497 5.95H24.1897V6.9H22.9197C22.5397 6.9 22.233 6.86 21.9997 6.78C21.773 6.7 21.603 6.56 21.4897 6.36C21.383 6.15333 21.313 5.93333 21.2797 5.7C21.253 5.46667 21.2397 5.15333 21.2397 4.76C21.2397 4.36 21.253 4.05667 21.2797 3.85C21.313 3.64333 21.383 3.45 21.4897 3.27C21.603 3.09 21.773 2.96333 21.9997 2.89C22.233 2.81667 22.5397 2.78 22.9197 2.78H23.0397ZM24.5897 5.95H24.7097C24.9964 5.95 25.2164 5.95667 25.3697 5.97C25.5297 5.97667 25.683 6.00667 25.8297 6.06C25.9764 6.10667 26.0764 6.16333 26.1297 6.23C26.1897 6.29667 26.243 6.41333 26.2897 6.58C26.343 6.74 26.373 6.91333 26.3797 7.1C26.3864 7.28667 26.3897 7.55333 26.3897 7.9C26.3897 8.24667 26.3864 8.52333 26.3797 8.73C26.373 8.93 26.343 9.12333 26.2897 9.31C26.243 9.49 26.1897 9.61667 26.1297 9.69C26.0764 9.76333 25.9764 9.83 25.8297 9.89C25.683 9.94333 25.5297 9.97667 25.3697 9.99C25.2164 9.99667 24.9964 10 24.7097 10H24.5897V5.95ZM21.3797 7.77H22.6397C22.733 7.77 22.7897 7.78333 22.8097 7.81C22.8297 7.83667 22.8397 7.89333 22.8397 7.98V8.76C22.8397 8.86667 22.853 8.94333 22.8797 8.99C22.913 9.03 22.9897 9.05 23.1097 9.05H24.1897V10H22.7197C22.233 10 21.863 9.91667 21.6097 9.75C21.363 9.58333 21.2397 9.29333 21.2397 8.88V7.98C21.2397 7.84 21.2864 7.77 21.3797 7.77ZM23.4397 2.77H24.7097C25.1964 2.77 25.563 2.85333 25.8097 3.02C26.063 3.18667 26.1897 3.47667 26.1897 3.89V4.79C26.1897 4.93 26.143 5 26.0497 5H24.7897C24.6964 5 24.6397 4.98667 24.6197 4.96C24.5997 4.93333 24.5897 4.87667 24.5897 4.79V4.01C24.5897 3.90333 24.573 3.83 24.5397 3.79C24.513 3.74333 24.4397 3.72 24.3197 3.72H23.4397V2.77Z" fill="white" fill-opacity="0.92"/>
</svg>
